<svg xmlns="http://www.w3.org/2000/svg" viewBox="0 0 320 200" role="img" aria-labelledby="title desc">
  <title id="title">Alaska Airlines Visa Signature fallback card art</title>
  <desc id="desc">Curated fallback card-style art for the Alaska Airlines Visa Signature card.</desc>
  <defs>
    <linearGradient id="bg" x1="0%" y1="0%" x2="100%" y2="100%">
      <stop offset="0%" stop-color="#0d2f59"/>
      <stop offset="55%" stop-color="#154c7f"/>
      <stop offset="100%" stop-color="#0f7f86"/>
    </linearGradient>
    <linearGradient id="glow" x1="0%" y1="0%" x2="100%" y2="0%">
      <stop offset="0%" stop-color="#71d7db" stop-opacity="0"/>
      <stop offset="48%" stop-color="#71d7db" stop-opacity="0.28"/>
      <stop offset="100%" stop-color="#71d7db" stop-opacity="0"/>
    </linearGradient>
  </defs>

  <rect width="320" height="200" rx="28" fill="url(#bg)"/>
  <rect x="12" y="12" width="296" height="176" rx="20" fill="none" stroke="#ffffff" stroke-opacity="0.14"/>

  <path
    d="M0 146c28-18 54-27 78-27 15 0 28 4 40 12 12-23 30-38 55-45 21-6 46-5 75 4 17 5 41 19 72 42v68H0Z"
    fill="#0b213e"
    opacity="0.76"
  />
  <path
    d="M-8 150c46-11 79-15 101-10 18 4 30 12 36 24 12-12 28-20 48-24 29-6 77 0 151 20v40H-8Z"
    fill="#11345b"
    opacity="0.82"
  />
  <rect x="30" y="40" width="260" height="52" rx="26" fill="url(#glow)" opacity="0.68"/>

  <text x="38" y="78" fill="#ffffff" font-family="Arial, Helvetica, sans-serif" font-size="40" font-weight="700" letter-spacing="0.6">Alaska</text>
  <text x="42" y="104" fill="#b8f1f0" font-family="Arial, Helvetica, sans-serif" font-size="14" font-weight="700" letter-spacing="2.8">AIRLINES</text>
  <text x="40" y="160" fill="#ffffff" font-family="Arial, Helvetica, sans-serif" font-size="18" font-weight="700" letter-spacing="2.1">VISA SIGNATURE</text>

  <path
    d="M253 68c7 0 14 2 19 6 8 5 13 14 13 24 0 15-11 28-26 31-4 1-8 1-12 0 9-2 16-9 17-18 2-12-5-22-16-27-5-2-10-3-16-2 5-8 13-14 21-14Z"
    fill="#ffffff"
    opacity="0.9"
  />
  <path
    d="M230 84c9-11 20-18 34-20-8 4-14 12-15 21-2 13 5 24 16 29 4 2 8 2 12 3-8 7-20 10-31 7-10-3-18-10-22-20-3-7-1-14 6-20Z"
    fill="#71d7db"
    opacity="0.9"
  />
</svg>
