<svg xmlns="http://www.w3.org/2000/svg" viewBox="0 0 320 200" role="img" aria-labelledby="title desc">
  <title id="title">U.S. Bank fallback logo</title>
  <desc id="desc">Curated fallback card-style logo for U.S. Bank.</desc>
  <rect width="320" height="200" rx="28" fill="#f6f8fb"/>
  <rect x="34" y="40" width="252" height="120" rx="24" fill="#ffffff" stroke="#d8e0ea"/>
  <path d="M68 56h184c14 0 24 10 24 24v56c0 14-10 24-24 24H68c-14 0-24-10-24-24V80c0-14 10-24 24-24Z" fill="#0a47a9"/>
  <path d="M44 108h232v28c0 14-10 24-24 24H68c-14 0-24-10-24-24v-28Z" fill="#d3202e"/>
  <text x="66" y="106" fill="#ffffff" font-family="Arial, Helvetica, sans-serif" font-size="36" font-weight="700" letter-spacing="1.2">U.S.</text>
  <text x="156" y="106" fill="#ffffff" font-family="Arial, Helvetica, sans-serif" font-size="36" font-weight="700" letter-spacing="1.2">Bank</text>
</svg>
